# xmcd CD database file
#
# Track frame offsets:
#	150
#	16143
#	29700
#	45665
#	63568
#	85783
#	105990
#	141318
#	151818
#	169888
#	198303
#	218698
#
# Disc length: 3179 seconds
#
# Revision: 0
# Processed by: cddbd v1.4PL0 Copyright (c) Steve Scherf et al.
# Submitted via: CDex 1.50beta9
#
DISCID=9c0c690c
DTITLE=Ahmad Jamal - Ahmad's Blues
DYEAR=1989
DGENRE=Jazz
TTITLE0=But Not For Me
TTITLE1=Music, Music, Music
TTITLE2=Gone With The Wind
TTITLE3=Ahmad's Blues
TTITLE4=This Can't Be Love
TTITLE5=I Didn't Know What Time It Was
TTITLE6=Brodway
TTITLE7=The Breeze And I
TTITLE8=Sweet and Lovely
TTITLE9=I'll Take Romance My Funny Valentine
TTITLE10=We Live In Two Different Worlds
TTITLE11=Falling In Love With Love
EXTD=YEAR: 1989
EXTT0=
EXTT1=
EXTT2=
EXTT3=
EXTT4=
EXTT5=
EXTT6=
EXTT7=
EXTT8=
EXTT9=
EXTT10=
EXTT11=
PLAYORDER=
